<svg width="34" height="33" viewBox="0 0 34 33" fill="none" xmlns="http://www.w3.org/2000/svg">
<path d="M11.3335 30.0244H22.6668C28.3618 30.0244 29.3818 27.8271 29.6793 25.1522L30.7418 14.2343C31.1243 10.9043 30.1327 8.18848 24.0835 8.18848H9.91683C3.86766 8.18848 2.87599 10.9043 3.25849 14.2343L4.32099 25.1522C4.61849 27.8271 5.63849 30.0244 11.3335 30.0244Z" stroke="#171717" stroke-width="1.5" stroke-miterlimit="10" stroke-linecap="round" stroke-linejoin="round"/>
<path d="M11.3333 8.18846V7.09667C11.3333 4.68107 11.3333 2.72949 15.8666 2.72949H18.1333C22.6666 2.72949 22.6666 4.68107 22.6666 7.09667V8.18846" stroke="#171717" stroke-width="1.5" stroke-miterlimit="10" stroke-linecap="round" stroke-linejoin="round"/>
<path d="M19.8334 17.7417V19.1064C19.8334 19.1201 19.8334 19.1201 19.8334 19.1337C19.8334 20.6213 19.8192 21.8359 17.0001 21.8359C14.1951 21.8359 14.1667 20.635 14.1667 19.1474V17.7417C14.1667 16.377 14.1667 16.377 15.5834 16.377H18.4167C19.8334 16.377 19.8334 16.377 19.8334 17.7417Z" stroke="#171717" stroke-width="1.5" stroke-miterlimit="10" stroke-linecap="round" stroke-linejoin="round"/>
<path d="M30.6708 15.0122C27.3983 17.305 23.6583 18.6697 19.8333 19.1337" stroke="#171717" stroke-width="1.5" stroke-miterlimit="10" stroke-linecap="round" stroke-linejoin="round"/>
<path d="M3.71191 15.3807C6.89941 17.4824 10.4977 18.7517 14.1669 19.1474" stroke="#171717" stroke-width="1.5" stroke-miterlimit="10" stroke-linecap="round" stroke-linejoin="round"/>
</svg>
