<svg width="185" height="108" viewBox="0 0 185 108" fill="none" xmlns="http://www.w3.org/2000/svg">
<g style="mix-blend-mode:multiply">
<path d="M95.3466 60.7959C79.7741 67.9434 61.3431 61.1088 54.1377 45.5148C42.0672 19.2164 10.8853 7.65342 -15.4132 19.7239C-41.7116 31.7943 -53.2745 62.9763 -41.2041 89.2747C-34.0566 104.847 -40.8912 123.278 -56.4852 130.484C-82.7837 142.554 -94.3466 173.736 -82.2762 200.034C-70.2057 226.333 -39.0238 237.896 -12.7253 225.825C2.84717 218.678 21.2782 225.513 28.4836 241.107C40.554 267.405 71.736 278.968 98.0344 266.897C124.333 254.827 135.896 223.645 123.825 197.347C116.678 181.774 123.512 163.343 139.106 156.138C165.405 144.067 176.968 112.885 164.897 86.5869C152.827 60.2884 121.703 48.747 95.3466 60.7959Z" fill="#EA193F" fill-opacity="0.1"/>
</g>
<g style="mix-blend-mode:multiply">
<path d="M89.5646 68.01C75.4742 74.4772 58.7973 68.2931 52.2777 54.1832C41.356 30.3877 13.1417 19.9252 -10.6538 30.8469C-34.4494 41.7686 -44.9119 69.9829 -33.9902 93.7784C-27.523 107.869 -33.7071 124.546 -47.817 131.065C-71.6125 141.987 -82.075 170.201 -71.1533 193.997C-60.2317 217.792 -32.0174 228.255 -8.22181 217.333C5.8686 210.866 22.5455 217.05 29.0651 231.16C39.9868 254.956 68.2011 265.418 91.9966 254.496C115.792 243.575 126.255 215.36 115.333 191.565C108.866 177.474 115.05 160.798 129.16 154.278C152.955 143.356 163.418 115.142 152.496 91.3464C141.574 67.5508 113.413 57.1078 89.5646 68.01Z" fill="#EA193F" fill-opacity="0.1"/>
</g>
</svg>
