<svg width="194" height="180" viewBox="0 0 194 180" fill="none" xmlns="http://www.w3.org/2000/svg">
<g style="mix-blend-mode:multiply" opacity="0.2">
<path d="M97 11.3793C111.911 -9.50652 145.966 1.12977 145.21 26.4151C170.046 17.9544 191.103 45.7538 175.033 65.7694C200.322 72.9247 200.322 107.299 175.033 114.455C191.103 134.518 170.046 162.318 145.21 153.809C145.916 179.094 111.861 189.73 97 168.845C82.0885 189.73 48.034 179.094 48.7897 153.809C23.954 162.269 2.89665 134.47 18.9668 114.455C-6.32225 107.299 -6.32225 72.9247 18.9668 65.7694C2.89665 45.7055 23.954 17.9061 48.7897 26.4151C48.034 1.12977 82.0885 -9.50652 97 11.3793Z" fill="#EA193F" fill-opacity="0.5"/>
</g>
<g style="mix-blend-mode:multiply" opacity="0.2">
<path d="M97 23.9507C109.452 6.52728 137.889 15.4003 137.258 36.494C157.997 29.4359 175.581 52.6268 162.162 69.3243C183.279 75.2934 183.279 103.97 162.162 109.939C175.581 126.676 157.997 149.867 137.258 142.769C137.847 163.863 109.41 172.736 97 155.312C84.5482 172.736 56.1109 163.863 56.7419 142.769C36.0029 149.827 18.4189 126.636 31.8382 109.939C10.7206 103.97 10.7206 75.2934 31.8382 69.3243C18.4189 52.5865 36.0029 29.3956 56.7419 36.494C56.1109 15.4003 84.5482 6.52728 97 23.9507Z" fill="#EA193F" fill-opacity="0.5"/>
</g>
</svg>
