<svg width="54" height="50" viewBox="0 0 54 50" fill="none" xmlns="http://www.w3.org/2000/svg">
<path d="M20.5206 40.0593H32.3853C32.2049 40.2226 32.0245 40.3655 31.8441 40.5289L23.2863 47.0622C20.4604 49.2059 15.8509 49.2059 13.005 47.0622L4.42714 40.5289C2.54322 39.0997 1 35.9351 1 33.5464V18.4176C1 15.9268 2.86389 13.1705 5.14864 12.2926L15.1294 8.47469C16.7728 7.84177 19.4985 7.84177 21.1419 8.47469L31.1026 12.2926C33.0065 13.0276 34.6299 15.0693 35.131 17.1518H20.5005C20.0596 17.1518 19.6588 17.1722 19.278 17.1722C15.5703 17.3968 14.6083 18.7647 14.6083 23.0726V34.1588C14.6283 38.8547 15.8108 40.0593 20.5206 40.0593Z" stroke="white" stroke-width="1.5" stroke-linecap="round" stroke-linejoin="round"/>
<path d="M14.6284 26.7272H41.0834" stroke="white" stroke-width="1.5" stroke-miterlimit="10" stroke-linecap="round" stroke-linejoin="round"/>
<path d="M41.0834 23.0521V34.3833C41.0433 38.9158 39.8208 40.0387 35.1912 40.0387H20.5207C15.8109 40.0387 14.6284 38.8341 14.6284 34.1179V23.0317C14.6284 18.7442 15.5904 17.3762 19.2981 17.1312C19.6789 17.1312 20.0798 17.1108 20.5207 17.1108H35.1912C39.9009 17.1313 41.0834 18.3154 41.0834 23.0521Z" stroke="white" stroke-width="1.5" stroke-linecap="round" stroke-linejoin="round"/>
<path d="M19.6792 34.9755H22.3447" stroke="white" stroke-width="1.5" stroke-miterlimit="10" stroke-linecap="round" stroke-linejoin="round"/>
<path d="M26.5532 34.9755H33.1069" stroke="white" stroke-width="1.5" stroke-miterlimit="10" stroke-linecap="round" stroke-linejoin="round"/>
</svg>
