<svg width="41" height="36" viewBox="0 0 41 36" fill="none" xmlns="http://www.w3.org/2000/svg">
<path d="M16.0158 25.9452H25.1425C25.0038 26.0635 24.865 26.167 24.7262 26.2853L18.1433 31.0163C15.9696 32.5687 12.4238 32.5687 10.2346 31.0163L3.63626 26.2853C2.18709 25.2503 1 22.9587 1 21.2289V10.2734C1 8.46965 2.43376 6.47371 4.19126 5.83797L11.8688 3.07324C13.1329 2.61491 15.2296 2.61491 16.4938 3.07324L24.1558 5.83797C25.6204 6.37022 26.8692 7.8487 27.2546 9.35674H16.0004C15.6612 9.35674 15.3529 9.37154 15.06 9.37154C12.2079 9.53417 11.4679 10.5247 11.4679 13.6443V21.6724C11.4833 25.0729 12.3929 25.9452 16.0158 25.9452Z" stroke="#171717" stroke-width="1.5" stroke-linecap="round" stroke-linejoin="round"/>
<path d="M11.4836 16.2908H31.8336" stroke="#171717" stroke-width="1.5" stroke-miterlimit="10" stroke-linecap="round" stroke-linejoin="round"/>
<path d="M31.8336 13.6295V21.835C31.8028 25.1172 30.8624 25.9304 27.3011 25.9304H16.0161C12.3932 25.9304 11.4836 25.0581 11.4836 21.6428V13.6147C11.4836 10.5099 12.2236 9.51932 15.0757 9.3419C15.3686 9.3419 15.677 9.32715 16.0161 9.32715H27.3011C30.9241 9.34193 31.8336 10.1995 31.8336 13.6295Z" stroke="#171717" stroke-width="1.5" stroke-linecap="round" stroke-linejoin="round"/>
<path d="M15.3684 22.2638H17.4188" stroke="#171717" stroke-width="1.5" stroke-miterlimit="10" stroke-linecap="round" stroke-linejoin="round"/>
<path d="M20.6562 22.2638H25.6975" stroke="#171717" stroke-width="1.5" stroke-miterlimit="10" stroke-linecap="round" stroke-linejoin="round"/>
</svg>
