<svg width="37" height="35" viewBox="0 0 37 35" fill="none" xmlns="http://www.w3.org/2000/svg">
<ellipse cx="18.5" cy="17.5" rx="18.5" ry="17.5" fill="#171924"/>
<path d="M27.8646 11.0178C27.932 11.0391 28.0044 11.0422 28.0736 11.0267C28.1428 11.0112 28.206 10.9778 28.2563 10.9301L30.8879 8.43453C30.9381 8.38687 30.9734 8.32688 30.9898 8.26128C31.0061 8.19569 31.0028 8.12707 30.9804 8.06313C30.9579 7.99918 30.9171 7.94243 30.8626 7.89923C30.808 7.85603 30.7418 7.82809 30.6715 7.81854L29.2809 7.63011L29.0823 6.31155C29.0723 6.24483 29.0428 6.18208 28.9972 6.13034C28.9517 6.07861 28.8918 6.03992 28.8244 6.01861C28.757 5.99731 28.6846 5.99423 28.6155 6.00972C28.5463 6.02521 28.483 6.05865 28.4328 6.10631L25.8012 8.60187C25.7509 8.64954 25.7156 8.70955 25.6993 8.77517C25.683 8.84079 25.6863 8.90942 25.7088 8.97336L26.1124 10.1216L25.3958 10.8012C23.4083 9.05094 20.7759 8.11033 18.0646 8.18166C15.3534 8.25299 12.7799 9.33058 10.8979 11.1826C9.01576 13.0347 7.97537 15.5133 8.00044 18.0852C8.02552 20.6572 9.11406 23.1171 11.0319 24.9359C12.9498 26.7546 15.5438 27.7869 18.256 27.8107C20.9682 27.8345 23.5818 26.8478 25.5349 25.063C27.4879 23.2782 28.6242 20.8378 28.6994 18.2667C28.7746 15.6956 27.7828 13.1992 25.9371 11.3145L26.6536 10.6351L27.8646 11.0178ZM27.9378 17.9786C27.9411 20.0663 27.1864 22.0913 25.8005 23.7134C24.4147 25.3355 22.4822 26.4556 20.328 26.8856C18.1737 27.3156 15.9291 27.0291 13.9713 26.0744C12.0135 25.1197 10.4621 23.555 9.57767 21.6432C8.69328 19.7314 8.52989 17.5892 9.11497 15.5767C9.70004 13.5641 10.9979 11.8039 12.7904 10.592C14.5829 9.38004 16.7608 8.79026 18.9578 8.92177C21.1549 9.05329 23.2372 9.89808 24.8548 11.3141L23.2251 12.8597C21.8106 11.6522 19.9549 11.0161 18.0531 11.0871C16.1514 11.1581 14.3541 11.9305 13.0441 13.2397C11.7341 14.5489 11.015 16.2915 11.0399 18.0961C11.0649 19.9008 11.8319 21.6248 13.1777 22.901C14.5235 24.1772 16.3415 24.9046 18.2445 24.9283C20.1476 24.952 21.9851 24.27 23.3657 23.0277C24.7463 21.7854 25.5607 20.081 25.6356 18.2776C25.7104 16.4742 25.0397 14.7144 23.7664 13.373L25.3962 11.8275C27.0315 13.5004 27.9394 15.6976 27.9378 17.9786ZM18.0978 18.2353C18.1333 18.269 18.1755 18.2957 18.2219 18.314C18.2684 18.3322 18.3181 18.3416 18.3684 18.3416C18.4187 18.3416 18.4684 18.3322 18.5149 18.314C18.5613 18.2957 18.6035 18.269 18.639 18.2353L20.2383 16.7187C20.5733 17.1651 20.7192 17.7145 20.6471 18.2581C20.5749 18.8017 20.29 19.2998 19.8489 19.6535C19.4077 20.0073 18.8425 20.191 18.2652 20.1681C17.688 20.1453 17.1409 19.9175 16.7323 19.5301C16.3238 19.1427 16.0837 18.6239 16.0596 18.0765C16.0355 17.5291 16.2292 16.9931 16.6022 16.5747C16.9753 16.1563 17.5005 15.8862 18.0737 15.8178C18.6469 15.7494 19.2263 15.8877 19.6971 16.2054L18.0978 17.722C18.0622 17.7557 18.034 17.7957 18.0148 17.8397C17.9955 17.8838 17.9856 17.931 17.9856 17.9786C17.9856 18.0263 17.9955 18.0735 18.0148 18.1175C18.034 18.1616 18.0622 18.2016 18.0978 18.2353ZM20.2431 15.6876C19.6258 15.2327 18.8488 15.0181 18.0705 15.0875C17.2921 15.1568 16.5709 15.5049 16.0537 16.0608C15.5365 16.6167 15.2621 17.3386 15.2865 18.0796C15.3109 18.8206 15.6322 19.5249 16.185 20.0492C16.7378 20.5734 17.4805 20.8781 18.2619 20.9012C19.0433 20.9244 19.8046 20.6642 20.3908 20.1737C20.977 19.6832 21.3441 18.9993 21.4172 18.2612C21.4903 17.5231 21.264 16.7863 20.7843 16.2009L23.2253 13.8861C24.3543 15.0903 24.944 16.6643 24.8694 18.274C24.7947 19.8837 24.0614 21.4025 22.8252 22.508C21.5891 23.6135 19.9473 24.2186 18.2483 24.195C16.5494 24.1714 14.927 23.5209 13.7255 22.3815C12.5241 21.2421 11.8381 19.7036 11.8132 18.0925C11.7883 16.4814 12.4264 14.9245 13.5922 13.7522C14.7579 12.5799 16.3595 11.8846 18.0569 11.8137C19.7544 11.7429 21.4142 12.3022 22.684 13.3728L20.2431 15.6876ZM28.4328 7.13289L28.5636 8.00243C28.5753 8.08016 28.6133 8.15217 28.6719 8.20768C28.7305 8.26319 28.8064 8.29919 28.8884 8.31028L29.8054 8.43453L27.8821 10.2582L26.853 9.93278L26.5099 8.95633L28.4328 7.13289Z" fill="white"/>
</svg>
